<?xml version="1.0" encoding="utf-8"?>
<!-- Generator: Adobe Illustrator 25.0.0, SVG Export Plug-In . SVG Version: 6.00 Build 0)  -->
<svg version="1.1" id="Calque_1" xmlns="http://www.w3.org/2000/svg" xmlns:xlink="http://www.w3.org/1999/xlink" x="0px" y="0px"
	 viewBox="0 0 483.85 260.16" style="enable-background:new 0 0 483.85 260.16;" xml:space="preserve">
<style type="text/css">
	.st0{fill:#4D453E;}
	.st1{fill:#C7C4C2;}
</style>
<path class="st0" d="M277.24,169.89c1.9-8.09,3.77-16.18,5.71-24.26c0.31-1.29-0.07-2.34-0.56-3.45
	c-6.03-13.67-12.27-27.24-18.58-40.79c-8.91-19.12-17.77-38.26-28.18-56.64c-3.82-6.75-7.76-13.42-11.82-20.03
	c-4.66-7.6-11.32-13.18-18.15-18.61c-1.89-1.5-4.07-2.53-6.53-2.81c-1.59-0.18-0.89-1.41-1.01-2.23c-0.13-0.84,0.37-1.13,1.15-1.08
	c0.32,0.02,0.64,0,0.96,0c12.63,0.03,25.27-0.05,37.9,0.11c9.12,0.12,18.17,1.09,27.09,3.18c12.41,2.92,22.99,8.95,31.75,18.21
	c10.51,11.11,19.09,23.56,26.34,37.01c8.16,15.13,15.23,30.79,22.71,46.25c5.18,10.71,10.13,21.55,15.53,32.15
	c4.32,8.47,8.35,17.09,13.2,25.28c2.66,4.48,5.88,8.56,9.37,12.44c0.31,0.35,0.56,0.78,1.07,0.93c0.7-0.21,0.59-0.89,0.75-1.37
	c8.49-26.21,17.01-52.41,25.41-78.65c2.88-8.99,5.11-18.15,6.32-27.53c1.69-13.09,1.19-26.01-3.59-38.51
	c-2.43-6.37-5.97-12.02-11.13-16.55c-5.8-5.1-12.51-7.91-20.32-7.8c-0.32,0-0.64-0.02-0.96,0c-0.94,0.08-1.34-0.32-1.17-1.27
	c0.01-0.08,0.02-0.16,0.02-0.24c0.23-3.01,0.24-3.02,3.21-3.02c32.39,0,64.77,0,97.16,0c0.16,0,0.32,0,0.48,0
	c2.33,0.01,2.37,0.01,2.33,2.33c-0.02,1.26,0.54,2.8-0.29,3.71c-0.74,0.82-2.28,0.37-3.45,0.54c-4.03,0.61-7.65,2.22-11.03,4.43
	c-5,3.28-9.12,7.51-12.85,12.15c-7.26,9.03-12.87,19.06-17.92,29.43c-8.4,17.28-15.02,35.26-21.06,53.47
	c-14.79,44.57-29.57,89.15-44.35,133.72c-2.01,6.06-4.03,12.13-6.05,18.19c-0.69,2.07-0.7,2.08-2.75,2.08
	c-8.32,0.01-16.63-0.03-24.95,0.03c-1.43,0.01-2.35-0.4-3.16-1.6c-2.44-3.58-4.45-7.39-6.33-11.28
	c-14.02-29.08-26.79-58.72-39.21-88.51c-0.68-1.62-0.76-3.44-1.69-4.96c-0.73,0.22-0.63,0.86-0.76,1.38
	c-8,34.22-15.99,68.44-24.02,102.66c-0.62,2.65-0.2,2.27-2.72,2.28c-8.48,0.02-16.95-0.03-25.43,0.05
	c-1.51,0.01-2.27-0.53-2.91-1.83c-9.16-18.65-18.06-37.41-26.41-56.44c-5.94-13.53-11.96-27.03-17.54-40.72
	c-8.45-20.72-17.98-40.96-27.28-61.31c-4.48-9.81-8.81-19.71-13.82-29.25c-8.35-15.92-16.69-31.87-27.22-46.53
	c-2.99-4.16-6.08-8.24-9.58-11.98c-1.81-1.93-3.74-3.72-5.85-5.32c-2.19-1.66-4.54-3.06-7.3-3.41c-1.56-0.2-1.14-1.22-1.2-2.1
	c-0.08-1.18,0.7-1.22,1.57-1.22c6.56,0.01,13.11,0.01,19.67,0c8.23-0.01,16.47-0.11,24.7,0.36c9.84,0.56,19.61,1.77,28.89,5.23
	c9.79,3.66,18.37,9.19,25.41,17.08c8.55,9.59,16.08,19.91,22.42,31.06c3.79,6.66,7.02,13.64,10.5,20.47
	c8.03,15.82,15.39,31.96,23.07,47.94c5.78,12.03,11.6,24.03,17.51,35.99c1.87,3.79,4.1,7.41,6.16,11.11
	C276.72,170.26,276.97,170.31,277.24,169.89z"/>
<path class="st0" d="M212.28,259.93c-0.85,0.36-1.65,0.19-2.43,0.19c-7.27,0.02-14.55-0.01-21.82,0.01
	c-11.88,0.04-23.11-2.6-33.7-8.06c-6.11-3.15-11.54-7.19-16.2-12.25c-5.76-6.26-11.22-12.76-15.58-20.13
	c-2.95-4.99-5.08-10.36-7.38-15.66C97.71,163.79,79.93,123.69,60.8,84.21C52.51,67.1,43.97,50.12,34.43,33.67
	c-3.38-5.83-7.02-11.49-10.92-16.99C18.1,9.06,10.81,4.92,1.63,3.96c-1.28-0.13-2.1-2-1.33-2.99C0.43,0.81,0.69,0.7,0.91,0.67
	C1.3,0.61,1.7,0.63,2.1,0.63C21.05,0.64,40,0.6,58.94,0.7c8,0.04,15.43,2.37,22.26,6.55c10.38,6.35,18.43,15.07,25,25.23
	c5.4,8.36,9.82,17.28,14.42,26.1c11.19,21.41,20.52,43.69,30.39,65.71c6.3,14.05,13.03,27.9,19.49,41.88
	c2.36,5.1,4.42,10.32,6.25,15.63c1.44,4.18,3.5,8.1,5.34,12.1c9.74,21.21,19.51,42.4,29.27,63.6
	C211.73,258.28,212.22,259.02,212.28,259.93z"/>
<path class="st1" d="M318.99,331.65c0.06,0.29,0.13,0.66-0.29,0.64c-0.3-0.01-0.5-0.31-0.48-0.66
	C318.48,331.63,318.74,331.64,318.99,331.65z"/>
</svg>
