<?xml version="1.0" encoding="utf-8"?>
<!-- Generator: Adobe Illustrator 25.0.0, SVG Export Plug-In . SVG Version: 6.00 Build 0)  -->
<svg version="1.1" id="Calque_3" xmlns="http://www.w3.org/2000/svg" xmlns:xlink="http://www.w3.org/1999/xlink" x="0px" y="0px"
	 viewBox="0 0 1080 1080" style="enable-background:new 0 0 1080 1080;" xml:space="preserve">
<style type="text/css">
	.st0{fill:#4E463F;}
	.st1{fill:#CABA9F;}
</style>
<g>
	<path class="st0" d="M804.52,301.38c1.02-10.29-0.35-8.53,8.47-8.54c60.91-0.06,121.81-0.04,182.72-0.03
		c6.65,0,5.45-0.35,5.57,5.65c0.01,0.3,0,0.61,0,0.91c0,5.35-0.01,5.28-5.53,5.79c-8.06,0.75-15.29,3.85-22.04,8.16
		c-10,6.39-18.14,14.79-25.51,23.98c-11.95,14.92-21.52,31.34-30.15,48.33c-17.32,34.13-30.7,69.86-42.74,106.12
		c-32.3,97.25-64.59,194.51-96.88,291.77c-1.44,4.34-1.45,4.35-5.91,4.35c-15.53,0.01-31.06-0.09-46.59,0.08
		c-3.14,0.04-5.06-1-6.75-3.5c-5.04-7.47-9.07-15.48-12.96-23.57c-26.03-54.17-49.79-109.34-73-164.76
		c-1.46-3.48-1.65-7.4-3.88-10.84c-1.19,1.41-1.27,3.01-1.62,4.48c-15.16,64.69-30.31,129.38-45.47,194.07
		c-0.94,4.01-0.96,4.02-4.97,4.03c-15.99,0.01-31.98-0.09-47.96,0.08c-3.2,0.04-4.83-0.99-6.24-3.84
		c-17.6-35.76-34.62-71.78-50.65-108.27c-11.62-26.46-23.29-52.89-34.25-79.63c-14.76-36.04-31.35-71.28-47.51-106.7
		c-10.29-22.56-20.13-45.36-31.8-67.23c-13.46-25.22-26.87-50.53-42.84-74.31c-8.49-12.64-17.47-24.95-28.32-35.74
		c-4.11-4.09-8.58-7.76-13.74-10.5c-2.3-1.22-4.76-1.99-7.29-2.59c-0.94-0.22-2.4,0.19-2.6-1.27c-0.18-1.34-0.06-2.73,0.06-4.08
		c0.06-0.7,0.73-0.9,1.37-0.92c1.06-0.04,2.13-0.06,3.2-0.06c18.73,0,37.46-0.15,56.19,0.04c17.04,0.17,34.05,0.65,50.99,3.08
		c23.38,3.36,44.68,11.49,63.64,25.65c5.64,4.21,10.49,9.26,15.21,14.44c16.38,17.97,30.47,37.63,42.52,58.69
		c6.56,11.47,12.04,23.56,18.11,35.32c17.28,33.54,32.78,67.94,49.18,101.9c9.32,19.31,18.79,38.56,28.11,57.88
		c4.3,8.9,9.97,17.02,14.19,26.13c1.47-1.01,1.44-2.26,1.7-3.36c3.29-14.06,6.54-28.14,9.91-42.18c0.7-2.92,0.52-5.47-0.74-8.3
		c-21.56-48.34-43.64-96.45-67.03-143.93c-12.23-24.83-25.72-49.05-40.25-72.65c-0.64-1.04-1.34-2.04-1.93-3.1
		c-8.81-15.77-22.05-27.42-35.9-38.46c-3.85-3.07-8.18-5.41-13.14-5.98c-2.95-0.34-2.2-2.26-2.34-3.96
		c-0.18-2.19,1.12-2.43,2.86-2.42c10.51,0.04,21.01-0.02,31.52,0.03c17.35,0.08,34.71-0.25,52.06,0.63
		c15.86,0.8,31.52,2.87,46.84,7.03c18.84,5.12,35.53,14.33,49.61,27.88c20.78,20.01,37.61,43.16,51.54,68.29
		c13.05,23.54,24.85,47.75,36.22,72.17c11.49,24.68,23.8,48.97,35.42,73.59c8.45,17.89,17.82,35.3,26.78,52.92
		c5.81,11.44,13.73,21.55,22.46,30.97c0.29,0.31,0.72,0.5,1.04,0.72c0.95-0.32,1.03-1.17,1.24-1.82
		c16.17-49.9,32.45-99.76,48.4-149.73c5.92-18.56,10.52-37.5,12.7-56.91c2.91-25.81,1.1-51.08-9.67-75.12
		c-4.66-10.41-11.14-19.57-19.94-26.94c-10.89-9.12-23.38-14.04-37.7-13.94C807.3,301.39,806.1,301.38,804.52,301.38z"/>
	<path class="st1" d="M484.19,786.08c-1.54,0.91-2.79,0.65-3.98,0.65c-14.77,0.02-29.54-0.01-44.31,0.01
		c-22.34,0.04-43.32-5.5-63.09-15.67c-13.7-7.05-25.15-16.93-35.13-28.66c-5.82-6.83-11.67-13.61-16.94-20.9
		c-7.89-10.93-13.76-22.91-19.07-35.24c-7.03-16.34-14.18-32.63-21.35-48.91c-7.91-17.95-15.85-35.89-23.86-53.79
		c-5.03-11.25-10.13-22.46-15.33-33.63c-12.65-27.17-25.14-54.41-38.12-81.41c-11.54-24-23.4-47.85-35.85-71.41
		c-8.6-16.28-17.38-32.45-26.96-48.18c-5.94-9.75-12.13-19.33-19.35-28.19c-8.25-10.12-19.13-15.76-31.75-18.29
		c-2.08-0.42-4.12-1.1-6.29-0.98c-2.51,0.13-2.45-1.61-2.47-3.38c-0.02-1.74,0.31-3.03,2.46-2.93c1.22,0.05,2.44-0.01,3.65-0.01
		c33.65,0,67.3,0.12,100.96-0.04c21.51-0.1,40.51,6.62,57.54,19.62c18.08,13.8,31.95,31.12,43.3,50.64
		c13.55,23.3,25.77,47.31,37.43,71.58c8.89,18.5,17.05,37.35,25.51,56.05c6.08,13.44,12.24,26.85,18.19,40.35
		c10.86,24.65,22.85,48.76,34.29,73.13c5.11,10.87,9.49,22.07,13.48,33.4c2.59,7.33,6.23,14.2,9.46,21.25
		c10.38,22.68,20.99,45.26,31.47,67.9c8.43,18.22,16.81,36.47,25.2,54.7C483.62,784.42,483.83,785.13,484.19,786.08z"/>
</g>
</svg>
