<?xml version="1.0" encoding="utf-8"?>
<!-- Generator: Adobe Illustrator 25.0.0, SVG Export Plug-In . SVG Version: 6.00 Build 0)  -->
<svg version="1.1" id="Calque_1" xmlns="http://www.w3.org/2000/svg" xmlns:xlink="http://www.w3.org/1999/xlink" x="0px" y="0px"
	 viewBox="0 0 547.28 111.26" style="enable-background:new 0 0 547.28 111.26;" xml:space="preserve">
<style type="text/css">
	.st0{fill:#4E463F;}
	.st1{fill:#C9BA9F;}
	.st2{fill:#4D453E;}
	.st3{fill:#CABAA0;}
	.st4{fill:#CBBBA1;}
	.st5{fill:#CABBA0;}
</style>
<g>
	<path class="st0" d="M115.58,73.1c0.77-3.3,1.43-6.34,2.2-9.36c0.32-1.25,0.22-2.32-0.33-3.52c-5.06-11.13-10.05-22.3-15.63-33.18
		c-2.85-5.55-5.83-11.04-9.36-16.21C90.59,8.08,88,6.08,85.41,4.09c-0.67-0.51-1.46-0.81-2.31-0.91c-0.52-0.07-0.47-0.45-0.48-0.82
		c-0.01-0.41,0.15-0.6,0.57-0.59c9.14,0.2,18.33-0.67,27.37,1.38c5.65,1.28,10.28,4.19,14.15,8.47c4.62,5.1,8.26,10.83,11.43,16.91
		c3.47,6.67,6.55,13.52,9.83,20.27c3.14,6.46,6.29,12.92,9.62,19.29c1.23,2.36,2.83,4.48,4.63,6.44c0.16,0.18,0.27,0.45,0.67,0.43
		c0.76-2.31,1.54-4.63,2.28-6.97c3.06-9.65,6.42-19.2,9.24-28.92c1.43-4.93,2.43-9.96,2.25-15.13c-0.15-4.43-0.9-8.74-3.19-12.64
		c-2.69-4.56-6.5-7.35-11.99-7.41c-0.29,0-0.78,0.13-0.67-0.41c0.1-0.5-0.25-1.25,0.6-1.43c0.24-0.05,0.51-0.01,0.76-0.01
		c13.52,0,27.04,0,40.56,0.01c0.4,0,1.03-0.25,1.14,0.27c0.16,0.72,0.17,1.51-0.03,2.25c-0.06,0.22-0.38,0.15-0.59,0.16
		c-2.3,0.09-4.3,0.98-6.12,2.32c-3.59,2.63-6.14,6.16-8.42,9.89c-3.76,6.16-6.61,12.75-9.14,19.49c-3.66,9.75-6.72,19.7-10.03,29.58
		c-4.84,14.45-9.62,28.91-14.4,43.38c-0.28,0.86-0.63,1.18-1.57,1.16c-3.34-0.07-6.69-0.04-10.03-0.01
		c-0.65,0.01-1.07-0.19-1.44-0.72c-1.16-1.68-2.06-3.5-2.94-5.34c-5.69-11.88-10.95-23.96-15.99-36.13c-0.3-0.72-0.34-1.55-0.9-2.36
		c-0.85,3.64-1.67,7.11-2.48,10.59c-2.55,10.88-5.11,21.75-7.61,32.64c-0.24,1.06-0.66,1.36-1.71,1.33c-3.23-0.07-6.47-0.08-9.7,0
		c-1.01,0.02-1.46-0.34-1.88-1.19c-6.98-14.2-13.32-28.69-19.47-43.26c-5.14-12.16-10.54-24.23-16.55-35.99
		c-3.7-7.23-7.55-14.41-12.71-20.78c-1.38-1.7-2.8-3.34-4.59-4.63c-0.8-0.58-1.64-1.1-2.64-1.23c-0.58-0.07-0.69-0.35-0.69-0.87
		c0.01-0.64,0.42-0.57,0.82-0.56c6.83,0.07,13.67-0.21,20.49,0.32c6.11,0.48,11.87,2.01,16.89,5.75c1.5,1.12,2.78,2.44,4.02,3.82
		c4.86,5.42,8.59,11.56,11.87,18.04c6.13,12.11,11.65,24.51,17.76,36.63C113.14,68.7,114.32,70.75,115.58,73.1z"/>
	<path class="st1" d="M13.03,2.6c3.53,0,7.05,0.04,10.58-0.01c4.98-0.06,9.28,1.67,13.11,4.76c4.38,3.53,7.51,8.02,10.19,12.89
		c5.05,9.2,9.42,18.73,13.66,28.32c2.73,6.17,5.47,12.34,8.5,18.37c1.99,3.96,3.51,8.12,5.24,12.19c2.13,5,4.5,9.91,6.78,14.85
		c2.39,5.17,4.79,10.34,7.2,15.5c0.28,0.6,0.25,0.82-0.49,0.81c-3.93-0.03-7.87,0.21-11.77-0.09c-7.83-0.59-14.55-3.6-19.73-9.74
		c-2.09-2.48-4.12-4.97-5.71-7.8c-1.47-2.63-2.49-5.48-3.72-8.22c-2.75-6.16-5.45-12.34-8.21-18.5
		C33.63,54.7,28.46,43.54,22.96,32.54c-3.57-7.14-7.2-14.26-11.59-20.94c-1.71-2.6-3.44-5.23-6.53-6.5
		C3.56,4.57,2.25,4.14,0.88,3.95C0.38,3.87-0.04,3.89,0,3.18C0.05,2.39,0.62,2.61,1.04,2.6C5.04,2.59,9.03,2.6,13.03,2.6z"/>
	<path class="st2" d="M320.4,35.07c0-10.09-0.01-20.19,0.02-30.28c0-0.9-0.2-1.16-1.12-1.13c-2,0.08-4-0.01-6,0.04
		c-0.73,0.02-0.83-0.27-0.82-0.89c0-0.61,0.09-0.89,0.82-0.89c10.32,0.03,20.64,0.02,30.96,0c0.64,0,0.8,0.22,0.77,0.81
		c-0.03,0.54,0.03,0.98-0.77,0.96c-2.07-0.05-4.14,0.01-6.21-0.03c-0.67-0.01-0.86,0.17-0.86,0.85c0.02,9.55,0.02,19.1,0,28.65
		c0,0.76,0.26,0.89,0.94,0.89c7.16-0.02,14.32-0.02,21.48,0.01c0.77,0,0.96-0.21,0.96-0.97c-0.03-9.48-0.03-18.95,0-28.43
		c0-0.85-0.25-1.02-1.04-1c-1.92,0.06-3.85,0-5.78,0.03c-0.62,0.01-1.01-0.04-0.98-0.85c0.02-0.69,0.18-0.92,0.91-0.92
		c10.25,0.02,20.5,0.02,30.75,0c0.67,0,0.88,0.17,0.87,0.85c-0.01,0.68-0.17,0.95-0.92,0.93c-2-0.06-4,0.03-6-0.04
		c-0.87-0.03-1.07,0.23-1.07,1.08c0.03,18.48,0.02,36.97,0.02,55.45c0,1.82,0.06,3.63-0.02,5.45c-0.04,0.9,0.28,1.07,1.1,1.05
		c2-0.06,4,0,6-0.03c0.62-0.01,0.93,0.08,0.9,0.81c-0.03,0.63-0.07,0.97-0.88,0.96c-10.25-0.03-20.5-0.03-30.75,0
		c-0.74,0-0.88-0.23-0.9-0.92c-0.03-0.79,0.32-0.86,0.96-0.85c1.96,0.03,3.93-0.03,5.89,0.03c0.79,0.02,0.94-0.24,0.94-0.97
		c-0.02-9.66-0.02-19.32,0-28.98c0-0.77-0.22-0.97-0.98-0.96c-7.12,0.03-14.25,0.03-21.37,0c-0.81,0-1.04,0.2-1.03,1.02
		c0.03,9.62,0.03,19.25,0,28.87c0,0.8,0.17,1.06,1.01,1.03c2-0.07,4,0.01,6-0.04c0.69-0.02,0.87,0.2,0.84,0.86
		c-0.03,0.57-0.03,0.92-0.79,0.92c-10.32-0.03-20.64-0.03-30.96,0c-0.75,0-0.79-0.31-0.8-0.9c-0.01-0.61,0.08-0.9,0.81-0.88
		c2.03,0.05,4.07-0.02,6.1,0.04c0.81,0.02,1.02-0.18,1.02-1.01C320.39,55.48,320.4,45.27,320.4,35.07z"/>
	<path class="st0" d="M496.4,55.35c-0.12-2.86-0.3-6.92-0.46-10.98c-0.02-0.47-0.23-1.04,0.65-1.03c0.69,0.01,1.07,0.02,1.18,0.91
		c0.75,5.73,2.73,11.01,6.62,15.35c6.47,7.21,14.49,10.24,24.09,8.11c4.19-0.93,7.28-3.43,8.43-7.77c1.23-4.64-0.42-8.76-4.59-11.61
		c-3.82-2.61-8.14-4.11-12.45-5.62c-4.25-1.49-8.49-2.97-12.39-5.26c-3.69-2.16-6.88-4.85-8.87-8.74c-4.07-7.96-2.4-21.35,8.8-26.32
		c8.96-3.97,17.63-2.95,25.59,2.94c0.66,0.49,1.22,0.62,2,0.4c2.71-0.76,4.72-2.39,6-4.85c0.41-0.78,0.95-0.81,1.59-0.7
		c0.73,0.11,0.41,0.76,0.43,1.16c0.33,7.8,0.63,15.6,0.93,23.4c0.02,0.49,0.27,1.09-0.67,1.14c-0.81,0.04-1.02-0.22-1.14-1
		c-1.06-6.65-3.7-12.54-8.85-17.02c-6.47-5.63-14-7.34-22.25-4.98c-5.04,1.44-7.47,6.2-5.94,10.81c0.58,1.77,1.79,3.06,3.25,4.12
		c3.35,2.44,7.17,3.93,10.96,5.5c4.69,1.94,9.5,3.59,14.03,5.9c3.78,1.92,7.33,4.15,10.06,7.48c3.46,4.22,4.52,9.13,3.87,14.41
		c-1.2,9.77-7.62,16.5-17.94,18.53c-8.24,1.62-15.89,0.11-22.51-5.35c-0.41-0.34-0.75-0.43-1.27-0.3c-2.99,0.73-5.05,2.58-6.47,5.24
		c-0.18,0.33-0.22,0.76-0.72,0.88c-0.97,0.22-1.29-0.02-1.34-1.01C496.84,64.9,496.65,60.73,496.4,55.35z"/>
	<path class="st0" d="M284.27,35.14c0,10.06,0.02,20.11-0.03,30.17c-0.01,1.17,0.34,1.43,1.44,1.38c1.92-0.09,3.85,0.01,5.78-0.04
		c0.68-0.02,0.86,0.17,0.85,0.85c-0.01,0.66-0.11,0.94-0.88,0.93c-10.36-0.03-20.71-0.03-31.07,0c-0.77,0-0.87-0.28-0.88-0.94
		c-0.02-0.68,0.19-0.85,0.86-0.84c2.03,0.04,4.07-0.03,6.1,0.04c0.88,0.03,1.06-0.26,1.06-1.09c-0.02-16.66-0.02-33.33-0.02-49.99
		c0-3.63-0.03-7.26,0.02-10.89c0.01-0.89-0.28-1.03-1.09-1.06c-11.9-0.47-19.05,9.21-20.19,18.09c-0.14,1.11-0.22,2.24-0.23,3.36
		c-0.01,0.76-0.33,0.87-1,0.86c-0.69,0-0.74-0.32-0.71-0.87c0.32-7.47,0.63-14.94,0.9-22.42c0.03-0.91,0.55-0.76,1.08-0.76
		c8.07,0,16.13,0,24.2,0c11.63,0,23.26,0.01,34.88-0.02c0.88,0,1.25,0.13,1.29,1.14c0.27,7.29,0.61,14.58,0.93,21.87
		c0.02,0.53,0.2,1.06-0.73,1.06c-0.79,0-0.99-0.28-1.01-0.99c-0.13-5.47-1.84-10.4-5.35-14.62c-4.05-4.86-9.31-6.98-15.59-6.7
		c-0.48,0.02-0.62,0.19-0.61,0.64c0.02,1.09,0.01,2.18,0.01,3.27C284.27,16.77,284.27,25.95,284.27,35.14z"/>
	<path class="st0" d="M441.44,26.47c0,6.32,0,12.64,0,18.95c0,3.64,0.28,7.24,1.27,10.77c1.8,6.42,5.81,9.98,12.45,10.73
		c5.2,0.59,10.08-0.32,14.12-3.95c2.83-2.54,4.36-5.84,5.29-9.44c0.77-2.96,1.11-5.99,1.1-9.05c-0.04-7.11,0.25-14.23-0.21-21.34
		c-0.29-4.46-0.88-8.88-2.78-13c-1.82-3.94-4.72-6.38-9.24-6.42c-0.76-0.01-0.66-0.44-0.68-0.91c-0.01-0.51-0.02-0.87,0.71-0.87
		c8.47,0.02,16.93,0.02,25.4,0.01c0.46,0,0.84,0.05,0.72,0.63c-0.08,0.39,0.35,1.08-0.44,1.11c-5.32,0.21-7.69,3.8-9.29,8.17
		c-1.56,4.27-2.09,8.75-2.19,13.26c-0.14,5.88-0.08,11.76-0.13,17.64c-0.04,4.25-0.3,8.47-1.58,12.58
		c-2.16,6.95-6.65,11.59-13.68,13.5c-7.59,2.07-15.24,2-22.76-0.42c-8.05-2.59-12.56-8.35-14.22-16.5
		c-0.55-2.72-0.69-5.46-0.69-8.23c0.01-12.96,0-25.93,0.03-38.89c0-0.9-0.21-1.17-1.12-1.13c-2,0.08-4-0.01-6,0.04
		c-0.68,0.02-0.86-0.19-0.86-0.86c0-0.68,0.15-0.93,0.9-0.92c10.25,0.03,20.5,0.02,30.74,0.01c0.66,0,0.98,0.09,0.96,0.87
		c-0.02,0.73-0.25,0.92-0.96,0.9c-1.96-0.04-3.93,0.03-5.89-0.04c-0.83-0.03-1.01,0.22-1,1.02
		C441.45,11.94,441.44,19.21,441.44,26.47z"/>
	<path class="st2" d="M214.62,35.18c0-10.13-0.01-20.26,0.02-30.39c0-0.9-0.2-1.17-1.12-1.13c-2,0.08-4-0.01-6,0.04
		c-0.72,0.02-0.83-0.26-0.82-0.89c0-0.61,0.08-0.9,0.82-0.89c10.36,0.03,20.72,0.03,31.07,0c0.75,0,0.8,0.32,0.81,0.91
		c0.01,0.65-0.17,0.89-0.86,0.87c-2.07-0.05-4.14,0.01-6.21-0.03c-0.72-0.02-0.9,0.21-0.9,0.91c0.02,20.41,0.02,40.81,0,61.22
		c0,0.75,0.25,0.89,0.93,0.88c2.07-0.04,4.14,0.02,6.21-0.03c0.71-0.02,0.86,0.23,0.84,0.87c-0.02,0.59-0.07,0.91-0.82,0.91
		c-10.36-0.03-20.72-0.03-31.07,0c-0.75,0-0.8-0.3-0.8-0.89c-0.01-0.61,0.08-0.91,0.81-0.89c2,0.06,4-0.03,6,0.04
		c0.9,0.03,1.13-0.2,1.13-1.12C214.61,55.44,214.62,45.31,214.62,35.18z"/>
	<path class="st3" d="M294.85,93.79c0-1.48,0-2.74,0-3.99c0-2.29-0.02-4.57,0.01-6.86c0.01-0.74-0.21-1.08-0.99-1.02
		c-0.65,0.05-1.31,0.01-1.96,0c-0.28,0-0.5-0.09-0.5-0.43c0-0.34,0.22-0.43,0.5-0.43c1.96,0.04,3.91-0.11,5.84-0.46
		c0.47-0.08,0.66,0.16,0.64,0.62c-0.01,0.29,0,0.58,0,0.87c0,8.82,0.01,17.63-0.02,26.45c0,0.96,0.2,1.42,1.24,1.27
		c0.53-0.07,1.09-0.01,1.63-0.01c0.31,0,0.59,0.05,0.58,0.46c-0.01,0.35-0.25,0.4-0.52,0.4c-1.67,0-3.34-0.01-5.01,0.01
		c-0.48,0.01-0.61-0.29-0.72-0.66c-0.08-0.24-0.15-0.49-0.23-0.72c-0.44-1.2-0.53-1.21-1.37-0.26c-2.46,2.79-7.41,2.89-10.43,0.21
		c-4.5-3.98-4.65-12.29-0.3-16.45c3.29-3.14,8.81-2.87,11.12,0.62C294.41,93.52,294.53,93.56,294.85,93.79z M295.13,99.92
		c0.1-0.69-0.16-1.95-0.28-3.2c-0.23-2.43-2.45-4.74-4.63-4.99c-2.57-0.29-4.42,1.04-5.38,3.89c-0.89,2.64-0.81,5.36-0.52,8.07
		c0.16,1.43,0.54,2.83,1.34,4.09c1.13,1.77,2.82,2.7,4.5,2.4c2.37-0.43,4.11-2.01,4.49-4.15
		C294.98,104.2,295.02,102.36,295.13,99.92z"/>
	<path class="st3" d="M338.06,93.67c0.29-0.42,0.18-0.79,0.18-1.13c0.01-2.87,0.01-5.73,0-8.6c-0.01-2.27,0.23-1.98-1.95-2
		c-0.33,0-0.65,0-0.98-0.01c-0.28,0-0.5-0.08-0.51-0.42c-0.01-0.34,0.2-0.44,0.49-0.44c1.96,0.04,3.91-0.11,5.84-0.46
		c0.46-0.08,0.67,0.15,0.65,0.61c-0.01,0.29,0,0.58,0,0.87c0,8.78,0,17.56,0,26.34c0,1.38,0,1.38,1.43,1.38c0.51,0,1.02,0,1.52,0.01
		c0.29,0,0.49,0.11,0.49,0.44c0,0.35-0.23,0.41-0.51,0.41c-1.67,0-3.34-0.01-5.01,0.01c-0.41,0-0.59-0.2-0.7-0.54
		c-0.09-0.28-0.17-0.55-0.27-0.83c-0.43-1.19-0.54-1.21-1.37-0.28c-2.49,2.82-7.51,2.89-10.51,0.15c-4.5-4.12-4.57-12.38-0.07-16.52
		c3.27-3.01,8.65-2.7,10.96,0.75C337.81,93.51,337.92,93.56,338.06,93.67z M327.56,101c-0.1,1.81,0.19,3.77,0.91,5.66
		c0.89,2.33,2.81,3.76,4.8,3.57c2.51-0.25,4.41-1.93,4.8-4.45c0.43-2.76,0.5-5.53,0.26-8.33c-0.17-2.03-0.99-3.61-2.56-4.83
		c-2.11-1.64-5.08-1.13-6.58,1.09C327.75,95.86,327.51,98.3,327.56,101z"/>
	<path class="st3" d="M219.07,81.07c3.38,0,6.76,0.01,10.14-0.01c0.61,0,0.86,0.12,0.94,0.82c0.3,2.86,0,5.73,0.33,8.58
		c0.03,0.26,0.02,0.53-0.32,0.58c-0.39,0.06-0.46-0.18-0.52-0.52c-0.21-1.14-0.11-2.31-0.38-3.45c-0.7-2.88-2.56-4.54-5.51-4.95
		c-2.17-0.3-4.35-0.15-6.53-0.21c-0.61-0.01-0.84,0.24-0.84,0.84c0.01,4.07,0.01,8.13,0,12.2c0,0.5,0.18,0.73,0.7,0.71
		c0.91-0.03,1.82,0.03,2.72-0.05c1.72-0.14,2.88-1.27,3.29-3.13c0.1-0.46,0.17-0.93,0.23-1.39c0.04-0.32,0-0.71,0.49-0.68
		c0.5,0.03,0.39,0.44,0.39,0.74c0.01,2.8,0.01,5.59,0.01,8.39c0,0.58,0,1.16,0,1.74c0,0.29,0.03,0.61-0.4,0.63
		c-0.42,0.02-0.45-0.28-0.47-0.58c-0.02-0.29-0.01-0.58-0.05-0.87c-0.5-2.97-1.64-3.92-4.74-3.94c-2.5-0.01-2.15-0.3-2.16,2.1
		c-0.02,3.38,0.02,6.75-0.02,10.13c-0.01,0.79,0.18,1.12,1.03,1.06c0.9-0.07,1.82-0.03,2.72-0.01c0.33,0.01,0.8-0.13,0.79,0.46
		c-0.02,0.51-0.44,0.39-0.74,0.39c-3.78,0.01-7.56,0.01-11.34,0c-0.31,0-0.71,0.08-0.72-0.43c-0.01-0.51,0.39-0.43,0.71-0.43
		c0.76-0.01,1.53-0.06,2.29,0.01c0.85,0.07,1.11-0.21,1.11-1.09c-0.04-4.65-0.02-9.3-0.02-13.94c0-3.89-0.03-7.77,0.02-11.66
		c0.01-0.92-0.18-1.36-1.19-1.23c-0.61,0.08-1.24,0.05-1.85,0c-0.38-0.03-1.02,0.28-1.04-0.4c-0.03-0.71,0.63-0.43,1-0.44
		C212.46,81.06,215.76,81.07,219.07,81.07z"/>
	<path class="st4" d="M262.83,95.41c0.52-0.77,0.93-1.55,1.46-2.28c1.44-1.98,4.13-2.97,6.46-2.35c2.42,0.65,3.83,2.45,4.09,5.16
		c0.39,4.17,0.13,8.34,0.15,12.51c0.01,1.08,0.24,1.56,1.37,1.37c0.42-0.07,0.87-0.01,1.31-0.01c0.29,0,0.62-0.02,0.64,0.4
		c0.03,0.51-0.36,0.46-0.68,0.46c-1.78,0.01-3.56,0-5.34,0c-1.16,0-2.33,0-3.49,0c-0.33,0-0.7,0.03-0.67-0.47
		c0.02-0.42,0.36-0.38,0.64-0.39c0.11,0,0.22,0,0.33,0c2.24-0.03,2.24-0.03,2.24-2.31c0-3.74,0-7.48,0-11.22
		c0-0.99-0.13-1.97-0.59-2.85c-0.96-1.82-3.31-2.07-5.04-0.53c-1.51,1.34-2.3,3.12-2.6,5.03c-0.58,3.74-0.15,7.53-0.26,11.3
		c-0.01,0.51,0.29,0.59,0.7,0.58c0.65-0.01,1.31,0,1.96,0c0.32,0,0.59,0.07,0.56,0.48c-0.03,0.35-0.28,0.38-0.54,0.38
		c-3.05,0-6.1,0-9.16,0c-0.28,0-0.5-0.07-0.51-0.42c-0.01-0.34,0.2-0.44,0.49-0.44c0.62-0.01,1.24-0.05,1.85,0
		c0.79,0.07,0.97-0.27,0.97-1c-0.03-5.3-0.03-10.6,0-15.9c0-0.78-0.26-1.04-1.01-0.97c-0.54,0.05-1.09,0.02-1.63,0.01
		c-0.28-0.01-0.63,0.05-0.66-0.38c-0.04-0.49,0.32-0.48,0.66-0.49c1.41-0.02,2.82-0.04,4.23-0.22c2.07-0.26,2.08-0.2,2.08,1.96
		C262.83,93.7,262.83,94.56,262.83,95.41z"/>
	<path class="st5" d="M247.58,107.43c-0.82,0.82-1.36,1.81-2.28,2.49c-2.01,1.49-4.24,1.75-6.46,0.73
		c-2.28-1.05-3.18-3.15-3.26-5.51c-0.12-3.7-0.04-7.41-0.06-11.11c-0.01-2.35,0.28-2.04-2.11-2.06c-0.22,0-0.44,0-0.65,0
		c-0.33-0.01-0.7,0.03-0.67-0.48c0.03-0.42,0.37-0.38,0.65-0.39c1.45-0.02,2.89-0.05,4.34-0.22c1.97-0.22,1.98-0.16,1.98,1.85
		c0,4.03-0.01,8.06,0.01,12.09c0,0.79,0.07,1.6,0.23,2.37c0.49,2.41,2.94,3.51,5.04,2.19c1.99-1.25,3.16-3.13,3.21-5.5
		c0.08-3.63,0-7.26,0.04-10.89c0.01-0.82-0.24-1.12-1.05-1.04c-0.58,0.06-1.16,0.01-1.74,0c-0.28,0-0.5-0.08-0.51-0.42
		c0-0.34,0.21-0.44,0.5-0.43c1.96,0.02,3.91-0.08,5.84-0.46c0.69-0.13,0.63,0.4,0.63,0.84c0,2.76,0,5.52,0,8.28
		c0,3.01,0.03,6.03-0.02,9.04c-0.01,0.83,0.25,1.11,1.05,1.03c0.61-0.06,1.23-0.01,1.85-0.01c0.33,0,0.58,0.1,0.55,0.49
		c-0.02,0.36-0.3,0.37-0.55,0.37c-1.96-0.01-3.91,0.13-5.85,0.39c-0.62,0.08-0.72-0.32-0.72-0.81
		C247.59,109.32,247.58,108.38,247.58,107.43z"/>
	<path class="st4" d="M314.28,100.03c-1.85,0-3.71,0.04-5.56-0.02c-0.84-0.03-1.05,0.27-1.03,1.07c0.04,1.9,0.29,3.73,1.03,5.51
		c1.77,4.23,6.83,4.37,9.65,1.87c0.51-0.45,0.95-1,1.39-1.53c0.24-0.3,0.45-0.46,0.8-0.18c0.38,0.3,0.06,0.52-0.09,0.72
		c-1.46,2.05-3.42,3.34-5.94,3.64c-4.25,0.5-7.5-1.24-9.52-4.88c-2.21-3.98-1.99-8.03,0.74-11.75c2.17-2.96,5.19-4.31,8.84-3.72
		c3.3,0.53,5.49,3.05,6,6.47c0.42,2.81,0.42,2.81-2.39,2.81C316.9,100.03,315.59,100.03,314.28,100.03z M312.15,99.17
		c1.27,0,2.53-0.02,3.8,0.01c0.56,0.01,0.76-0.19,0.77-0.76c0.01-1.46-0.2-2.88-0.75-4.23c-0.6-1.46-1.51-2.59-3.23-2.66
		c-1.72-0.07-2.84,0.94-3.64,2.32c-0.81,1.4-1.1,2.97-1.35,4.54c-0.1,0.64,0.22,0.81,0.81,0.79
		C309.76,99.15,310.95,99.17,312.15,99.17z"/>
</g>
</svg>
